<svg width="17" height="17" viewBox="0 0 17 17" fill="none" xmlns="http://www.w3.org/2000/svg">
<path d="M8.50002 1.41667C8.68788 1.41667 8.86805 1.4913 9.00088 1.62414C9.13372 1.75698 9.20835 1.93714 9.20835 2.12501V2.65626H9.60289C10.4401 2.65626 11.2009 3.00192 11.7449 3.56221C11.7754 3.59464 11.792 3.63773 11.791 3.68223C11.7901 3.72673 11.7718 3.76909 11.7399 3.80021L11.242 4.29817C11.1676 4.37255 11.0451 4.36546 10.9714 4.29109C10.7929 4.10936 10.5799 3.96512 10.3449 3.86684C10.1099 3.76856 9.85762 3.71821 9.60289 3.71876H7.39714C6.90809 3.7187 6.4374 3.90503 6.0809 4.23981C5.7244 4.5746 5.5089 5.03266 5.47827 5.52076L5.32243 8.02401C5.2496 9.17203 4.86404 10.2783 4.20752 11.2228C4.1721 11.2745 4.1721 11.361 4.12889 11.4056L3.58773 11.951C3.51831 12.0218 3.40356 12.0218 3.34689 11.9418C3.20707 11.7497 3.13075 11.5187 3.12859 11.2811C3.12643 11.0435 3.19854 10.8111 3.33485 10.6165C3.88044 9.83124 4.20083 8.9117 4.26135 7.95742L4.41789 5.45488C4.46529 4.69693 4.7998 3.98555 5.35332 3.4656C5.90683 2.94564 6.63771 2.65622 7.39714 2.65626H7.79168V2.12501C7.79168 1.93714 7.86631 1.75698 7.99915 1.62414C8.13199 1.4913 8.31216 1.41667 8.50002 1.41667Z" fill="#A7AEB9"/>
<path fill-rule="evenodd" clip-rule="evenodd" d="M12.5984 5.71908L14.8962 3.42125C14.99 3.32054 15.0411 3.18734 15.0387 3.04971C15.0363 2.91208 14.9805 2.78077 14.8832 2.68343C14.7858 2.5861 14.6545 2.53034 14.5169 2.52791C14.3793 2.52549 14.2461 2.57657 14.1454 2.67041L2.81203 14.0037C2.75983 14.0524 2.71797 14.111 2.68893 14.1762C2.6599 14.2414 2.64429 14.3117 2.64303 14.383C2.64177 14.4544 2.65489 14.5252 2.68161 14.5914C2.70833 14.6575 2.7481 14.7176 2.79854 14.7681C2.84899 14.8185 2.90908 14.8583 2.97523 14.885C3.04138 14.9117 3.11224 14.9248 3.18357 14.9236C3.2549 14.9223 3.32524 14.9067 3.39041 14.8777C3.45558 14.8486 3.51423 14.8068 3.56286 14.7546L5.72045 12.5977L6.55203 12.6969V13.4583C6.55203 13.975 6.75726 14.4704 7.12256 14.8357C7.48787 15.201 7.98333 15.4062 8.49995 15.4062C9.01657 15.4062 9.51203 15.201 9.87733 14.8357C10.2426 14.4704 10.4479 13.975 10.4479 13.4583V12.6969L12.8612 12.4072C13.0573 12.3836 13.244 12.3097 13.4031 12.1926C13.5623 12.0756 13.6884 11.9193 13.7693 11.7391C13.8503 11.5589 13.8832 11.3608 13.8649 11.1641C13.8467 10.9674 13.7778 10.7787 13.6651 10.6165C13.1195 9.83123 12.7991 8.91169 12.7386 7.95741L12.5984 5.71908ZM11.5968 6.72208L6.67599 11.6429L6.91257 11.6712C7.96728 11.7973 9.03261 11.7973 10.0873 11.6712L12.7344 11.3532C12.7486 11.3514 12.7621 11.3461 12.7736 11.3376C12.7851 11.3291 12.7942 11.3178 12.8001 11.3048C12.8059 11.2917 12.8083 11.2774 12.8069 11.2632C12.8056 11.2489 12.8006 11.2353 12.7924 11.2235C12.1362 10.2789 11.7509 9.17267 11.6782 8.02471L11.5968 6.72208ZM8.49995 14.3437C8.0112 14.3437 7.61453 13.9471 7.61453 13.4583V12.9271H9.38536V13.4583C9.38536 13.9471 8.9887 14.3437 8.49995 14.3437Z" fill="#A7AEB9"/>
</svg>
