<svg width="34" height="24" viewBox="0 0 34 24" fill="none" xmlns="http://www.w3.org/2000/svg">
<path d="M5.11816 23.9312C4.1748 23.9312 3.34375 23.744 2.625 23.3696C1.91374 23.0028 1.3597 22.4899 0.962891 21.8311C0.573568 21.1797 0.378906 20.4272 0.378906 19.5737C0.378906 18.5405 0.670898 17.6421 1.25488 16.8784C1.83887 16.1147 2.61003 15.5981 3.56836 15.3286C3.6582 14.3927 3.90527 13.5205 4.30957 12.7119C4.72135 11.9033 5.25293 11.1995 5.9043 10.6006C6.56315 9.99414 7.31185 9.5262 8.15039 9.19678C8.98893 8.85986 9.8724 8.69141 10.8008 8.69141C11.7891 8.69141 12.6987 8.85986 13.5298 9.19678C14.3608 9.5262 15.0908 9.99414 15.7197 10.6006C16.3561 11.1995 16.8877 11.8958 17.3145 12.6895C18.4525 12.6969 19.4707 12.9478 20.3691 13.4419C21.2676 13.9285 21.9788 14.5949 22.5029 15.4409C23.027 16.2795 23.2891 17.2303 23.2891 18.2935C23.2891 19.3566 23.0345 20.3112 22.5254 21.1572C22.0238 22.0107 21.3424 22.6846 20.4814 23.1787C19.6279 23.6803 18.6621 23.9312 17.584 23.9312H5.11816ZM24.7041 17.4287C24.5768 16.2907 24.2287 15.2874 23.6597 14.4189C23.0907 13.5505 22.3382 12.8542 21.4023 12.3301C20.474 11.806 19.4033 11.499 18.1904 11.4092C18.0107 11.0723 17.8161 10.7653 17.6064 10.4883C17.4043 10.2113 17.1834 9.94922 16.9438 9.70215C17.408 8.90104 18.0632 8.24967 18.9092 7.74805C19.7552 7.24642 20.6911 6.99561 21.7168 6.99561C22.75 6.99561 23.6934 7.25016 24.5469 7.75928C25.4004 8.2609 26.0742 8.93848 26.5684 9.79199C27.07 10.6455 27.3208 11.5889 27.3208 12.6221C27.3208 13.6178 27.085 14.5312 26.6133 15.3623C26.1491 16.1859 25.5127 16.8747 24.7041 17.4287ZM15.0459 7.3999L13.4062 5.74902C13.2041 5.55436 13.103 5.31478 13.103 5.03027C13.103 4.74577 13.2041 4.50618 13.4062 4.31152C13.6009 4.11686 13.8368 4.01953 14.1138 4.01953C14.3983 4.01953 14.6379 4.11686 14.8325 4.31152L16.4834 5.97363C16.6781 6.16829 16.7716 6.40788 16.7642 6.69238C16.7642 6.9694 16.6706 7.20524 16.4834 7.3999C16.2962 7.59456 16.0604 7.69564 15.7759 7.70312C15.4914 7.70312 15.248 7.60205 15.0459 7.3999ZM21.7056 5.23242C21.4285 5.23242 21.189 5.13135 20.9868 4.9292C20.7922 4.71956 20.6948 4.47998 20.6948 4.21045V1.87451C20.6948 1.59749 20.7922 1.36165 20.9868 1.16699C21.189 0.964844 21.4285 0.86377 21.7056 0.86377C21.9826 0.86377 22.2222 0.964844 22.4243 1.16699C22.6265 1.36165 22.7275 1.59749 22.7275 1.87451V4.21045C22.7275 4.47998 22.6265 4.71956 22.4243 4.9292C22.2222 5.13135 21.9826 5.23242 21.7056 5.23242ZM30.106 13.6328C29.8364 13.6328 29.6006 13.5355 29.3984 13.3408C29.1963 13.1462 29.0952 12.9066 29.0952 12.6221C29.0952 12.3451 29.1963 12.1092 29.3984 11.9146C29.6006 11.7124 29.8364 11.6113 30.106 11.6113H32.4419C32.7189 11.6113 32.9548 11.7124 33.1494 11.9146C33.3516 12.1092 33.4526 12.3451 33.4526 12.6221C33.4526 12.9066 33.3516 13.1462 33.1494 13.3408C32.9548 13.5355 32.7189 13.6328 32.4419 13.6328H30.106ZM26.939 7.3999C26.7443 7.20524 26.647 6.9694 26.647 6.69238C26.647 6.40788 26.7443 6.16829 26.939 5.97363L28.6011 4.32275C28.8032 4.12809 29.0428 4.03076 29.3198 4.03076C29.5968 4.02327 29.8327 4.12061 30.0273 4.32275C30.222 4.51742 30.3193 4.757 30.3193 5.0415C30.3193 5.31852 30.222 5.55436 30.0273 5.74902L28.3765 7.3999C28.1818 7.60205 27.9385 7.70312 27.6465 7.70312C27.362 7.69564 27.1261 7.59456 26.939 7.3999ZM28.6011 20.9438L26.939 19.3042C26.7443 19.1021 26.6432 18.8625 26.6357 18.5854C26.6357 18.3009 26.7368 18.0614 26.939 17.8667C27.1336 17.672 27.3695 17.5747 27.6465 17.5747C27.931 17.5747 28.1706 17.672 28.3652 17.8667L30.0161 19.5176C30.2183 19.7048 30.3193 19.9406 30.3193 20.2251C30.3193 20.5021 30.222 20.7417 30.0273 20.9438C29.8327 21.1385 29.5931 21.2358 29.3086 21.2358C29.0316 21.2358 28.7957 21.1385 28.6011 20.9438Z" fill="white"/>
</svg>
