<svg width="20" height="17" viewBox="0 0 20 17" fill="none" xmlns="http://www.w3.org/2000/svg">
<path d="M9.56272 1.41667C9.99768 1.41667 10.3503 1.7338 10.3503 2.12501V2.83334C10.3503 3.22454 9.99768 3.54167 9.56272 3.54167C9.12775 3.54167 8.77515 3.22454 8.77515 2.83334V2.12501C8.77515 1.7338 9.12775 1.41667 9.56272 1.41667Z" fill="#dedede"/>
<path d="M9.56272 13.4583C9.99768 13.4583 10.3503 13.7755 10.3503 14.1667V14.875C10.3503 15.2662 9.99768 15.5833 9.56272 15.5833C9.12775 15.5833 8.77515 15.2662 8.77515 14.875V14.1667C8.77515 13.7755 9.12775 13.4583 9.56272 13.4583Z" fill="#dedede"/>
<path d="M16.6509 9.20834C17.0858 9.20834 17.4384 8.89121 17.4384 8.50001C17.4384 8.1088 17.0858 7.79167 16.6509 7.79167H15.8633C15.4283 7.79167 15.0757 8.1088 15.0757 8.50001C15.0757 8.89121 15.4283 9.20834 15.8633 9.20834H16.6509Z" fill="#dedede"/>
<path d="M4.04972 8.5C4.04972 8.89121 3.69712 9.20834 3.26215 9.20834H2.47458C2.03962 9.20834 1.68701 8.89121 1.68701 8.5C1.68701 8.1088 2.03962 7.79167 2.47458 7.79167H3.26215C3.69712 7.79167 4.04972 8.1088 4.04972 8.5Z" fill="#dedede"/>
<path d="M13.461 13.0078L14.0179 13.5087C14.3255 13.7853 14.8241 13.7853 15.1317 13.5087C15.4392 13.2321 15.4392 12.7836 15.1317 12.5069L14.5748 12.0061C14.2672 11.7295 13.7686 11.7295 13.461 12.0061C13.1534 12.2827 13.1534 12.7312 13.461 13.0078Z" fill="#dedede"/>
<path d="M5.66444 4.99393C5.35688 5.27056 4.85821 5.27056 4.55065 4.99393L3.99375 4.49307C3.68619 4.21645 3.68619 3.76795 3.99375 3.49133C4.30132 3.21471 4.79998 3.21471 5.10755 3.49133L5.66444 3.9922C5.97201 4.26882 5.97201 4.71731 5.66444 4.99393Z" fill="#dedede"/>
<path d="M3.99375 12.5069C3.68619 12.7836 3.68619 13.2321 3.99375 13.5087C4.30132 13.7853 4.79998 13.7853 5.10755 13.5087L5.66444 13.0078C5.97201 12.7312 5.97201 12.2827 5.66444 12.0061C5.35688 11.7295 4.85822 11.7295 4.55065 12.0061L3.99375 12.5069Z" fill="#dedede"/>
<path d="M13.461 4.99393C13.1534 4.71731 13.1534 4.26882 13.461 3.9922L14.0179 3.49133C14.3255 3.21471 14.8241 3.21471 15.1317 3.49133C15.4392 3.76795 15.4392 4.21645 15.1317 4.49307L14.5748 4.99393C14.2672 5.27056 13.7686 5.27056 13.461 4.99393Z" fill="#dedede"/>
<path fill-rule="evenodd" clip-rule="evenodd" d="M9.56272 4.60417C7.17042 4.60417 5.23108 6.3484 5.23108 8.50001C5.23108 10.6516 7.17042 12.3958 9.56272 12.3958C11.955 12.3958 13.8944 10.6516 13.8944 8.50001C13.8944 6.3484 11.955 4.60417 9.56272 4.60417ZM6.80622 8.50001C6.80622 7.1308 8.04035 6.02084 9.56272 6.02084C11.0851 6.02084 12.3192 7.1308 12.3192 8.50001C12.3192 9.86921 11.0851 10.9792 9.56272 10.9792C8.04035 10.9792 6.80622 9.86921 6.80622 8.50001Z" fill="#dedede"/>
</svg>
