<svg width="19" height="17" viewBox="0 0 19 17" fill="none" xmlns="http://www.w3.org/2000/svg">
<path d="M9.31291 3.17461C9.46002 2.93512 9.44008 2.64124 9.26168 2.41944C9.08328 2.19764 8.77824 2.08751 8.47785 2.13643C5.85534 2.56357 3.86694 4.61741 3.86694 7.08845C3.86694 8.34631 4.38341 9.49797 5.23583 10.3801C5.52175 10.6759 6.02147 10.7083 6.352 10.4524C6.68253 10.1964 6.71869 9.74912 6.43278 9.45325C5.81966 8.81879 5.44957 7.9932 5.44957 7.08845C5.44957 5.78946 6.21502 4.6497 7.36426 4.01191C7.33392 4.20983 7.31825 4.41182 7.31825 4.61694C7.31825 7.05561 9.52677 9.03254 12.2511 9.03254C12.4802 9.03254 12.7059 9.01852 12.9269 8.99136C12.814 9.15432 12.687 9.30873 12.5474 9.45325C12.2615 9.74912 12.2976 10.1964 12.6282 10.4524C12.9587 10.7083 13.4584 10.6759 13.7443 10.3801C14.3867 9.71532 14.8387 8.89721 15.0222 7.99453C15.0769 7.72564 14.9538 7.4526 14.7061 7.2929C14.4583 7.13321 14.13 7.11536 13.8624 7.24704C13.3851 7.48197 12.8368 7.61587 12.2511 7.61587C10.4008 7.61587 8.90087 6.27321 8.90087 4.61694C8.90087 4.09271 9.05047 3.60187 9.31291 3.17461Z" fill="#dedede"/>
<path d="M9.4958 10.625C9.93283 10.625 10.2871 10.9421 10.2871 11.3333V13.1649L10.5189 12.9575C10.8279 12.6808 11.3289 12.6808 11.638 12.9575C11.947 13.2341 11.947 13.6826 11.638 13.9592L10.0553 15.3759C9.74631 15.6525 9.24528 15.6525 8.93626 15.3759L7.35363 13.9592C7.0446 13.6826 7.0446 13.2341 7.35363 12.9575C7.66266 12.6808 8.16369 12.6808 8.47272 12.9575L8.70449 13.1649V11.3333C8.70449 10.9421 9.05877 10.625 9.4958 10.625Z" fill="#dedede"/>
</svg>
