<svg width="9" height="13" viewBox="0 0 9 13" fill="none" xmlns="http://www.w3.org/2000/svg">
<g clip-path="url(#clip0_10_87)">
<path d="M5.03609 1.38058C5.03609 0.982641 4.71459 0.66114 4.31665 0.66114C3.91871 0.66114 3.59721 0.982641 3.59721 1.38058V3.89863H1.07916C0.681221 3.89863 0.359721 4.22013 0.359721 4.61807C0.359721 5.01601 0.681221 5.33751 1.07916 5.33751H3.59721V7.85555C3.59721 8.25349 3.91871 8.57499 4.31665 8.57499C4.71459 8.57499 5.03609 8.25349 5.03609 7.85555V5.33751H7.55413C7.95207 5.33751 8.27357 5.01601 8.27357 4.61807C8.27357 4.22013 7.95207 3.89863 7.55413 3.89863H5.03609V1.38058ZM0 11.4528C0 11.8507 0.3215 12.1722 0.719441 12.1722H7.91385C8.31179 12.1722 8.63329 11.8507 8.63329 11.4528C8.63329 11.0548 8.31179 10.7333 7.91385 10.7333H0.719441C0.3215 10.7333 0 11.0548 0 11.4528Z" fill="#757575"/>
</g>
<defs>
<clipPath id="clip0_10_87">
<rect width="8.63329" height="11.5111" fill="white" transform="translate(0 0.66114)"/>
</clipPath>
</defs>
</svg>
