<svg width="20" height="17" viewBox="0 0 20 17" fill="none" xmlns="http://www.w3.org/2000/svg">
<path d="M10.3503 2.12501C10.3503 1.7338 9.99768 1.41667 9.56272 1.41667C9.12775 1.41667 8.77515 1.7338 8.77515 2.12501V2.83334C8.77515 3.22454 9.12775 3.54167 9.56272 3.54167C9.99768 3.54167 10.3503 3.22454 10.3503 2.83334V2.12501Z" fill="#dedede"/>
<path d="M10.3503 14.875C10.3503 15.2662 9.99768 15.5833 9.56272 15.5833C9.12775 15.5833 8.77515 15.2662 8.77515 14.875V13.0434L8.54447 13.2509C8.23691 13.5275 7.73825 13.5275 7.43068 13.2509C7.12311 12.9743 7.12311 12.5258 7.43068 12.2491L9.00582 10.8325C9.31339 10.5558 9.81205 10.5558 10.1196 10.8325L11.6948 12.2491C12.0023 12.5258 12.0023 12.9743 11.6948 13.2509C11.3872 13.5275 10.8885 13.5275 10.581 13.2509L10.3503 13.0434V14.875Z" fill="#dedede"/>
<path d="M16.6509 9.20834C17.0858 9.20834 17.4384 8.89121 17.4384 8.50001C17.4384 8.1088 17.0858 7.79167 16.6509 7.79167H15.8633C15.4283 7.79167 15.0757 8.1088 15.0757 8.50001C15.0757 8.89121 15.4283 9.20834 15.8633 9.20834H16.6509Z" fill="#dedede"/>
<path d="M4.04972 8.5C4.04972 8.89121 3.69712 9.20834 3.26215 9.20834H2.47458C2.03962 9.20834 1.68701 8.89121 1.68701 8.5C1.68701 8.1088 2.03962 7.79167 2.47458 7.79167H3.26215C3.69712 7.79167 4.04972 8.1088 4.04972 8.5Z" fill="#dedede"/>
<path d="M14.0179 13.5087C14.3254 13.7853 14.8241 13.7853 15.1317 13.5087C15.4392 13.2321 15.4392 12.7836 15.1317 12.5069L14.5748 12.0061C14.2672 11.7295 13.7686 11.7295 13.461 12.0061C13.1534 12.2827 13.1534 12.7312 13.461 13.0078L14.0179 13.5087Z" fill="#dedede"/>
<path d="M5.66444 4.99393C5.35688 5.27056 4.85822 5.27056 4.55065 4.99393L3.99376 4.49307C3.68619 4.21645 3.68619 3.76795 3.99376 3.49133C4.30132 3.21471 4.79998 3.21471 5.10755 3.49133L5.66444 3.9922C5.97201 4.26882 5.97201 4.71731 5.66444 4.99393Z" fill="#dedede"/>
<path d="M3.99375 12.5069C3.68619 12.7836 3.68619 13.2321 3.99375 13.5087C4.30132 13.7853 4.79998 13.7853 5.10755 13.5087L5.66444 13.0078C5.97201 12.7312 5.97201 12.2827 5.66444 12.0061C5.35688 11.7295 4.85821 11.7295 4.55065 12.0061L3.99375 12.5069Z" fill="#dedede"/>
<path d="M13.461 4.99393C13.1534 4.71731 13.1534 4.26882 13.461 3.9922L14.0179 3.49133C14.3255 3.21471 14.8241 3.21471 15.1317 3.49133C15.4393 3.76795 15.4393 4.21645 15.1317 4.49307L14.5748 4.99393C14.2672 5.27056 13.7686 5.27056 13.461 4.99393Z" fill="#dedede"/>
<path d="M7.11221 9.63715C6.57615 8.70344 6.74467 7.52845 7.61357 6.74697C8.69005 5.77879 10.4354 5.77879 11.5118 6.74697C12.3808 7.52845 12.5493 8.70344 12.0132 9.63715C11.8136 9.98474 11.9652 10.412 12.3517 10.5915C12.7381 10.771 13.2132 10.6347 13.4128 10.2871C14.2542 8.8215 13.9932 6.97524 12.6256 5.74523C10.934 4.22382 8.19139 4.22382 6.49978 5.74523C5.13218 6.97524 4.8712 8.8215 5.71264 10.2871C5.9122 10.6347 6.38728 10.771 6.77376 10.5915C7.16024 10.412 7.31177 9.98474 7.11221 9.63715Z" fill="#dedede"/>
</svg>
