<svg width="17" height="17" viewBox="0 0 17 17" fill="none" xmlns="http://www.w3.org/2000/svg">
<path d="M4.54584 1.70619C4.63498 1.5998 4.67886 1.46269 4.66805 1.3243C4.65724 1.18592 4.5926 1.05729 4.48801 0.966028C4.38342 0.874767 4.24722 0.828151 4.10864 0.836187C3.97007 0.844223 3.84017 0.90627 3.74683 1.00901L2.83328 2.05549C2.31526 2.64914 2.02242 3.406 2.00599 4.19371L1.96569 6.11627C1.96278 6.25692 2.01587 6.39296 2.11326 6.49447C2.21066 6.59598 2.34439 6.65464 2.48504 6.65754C2.62569 6.66045 2.76173 6.60737 2.86324 6.50997C2.96475 6.41257 3.02341 6.27884 3.02631 6.13819L3.06591 4.21634C3.07726 3.67735 3.27774 3.1595 3.63229 2.75338L4.54584 1.70619Z" fill="#FFD500"/>
<path fill-rule="evenodd" clip-rule="evenodd" d="M4.41011 5.44454C4.4576 4.68806 4.7916 3.97811 5.34412 3.45922C5.89664 2.94033 6.62614 2.65152 7.38411 2.65157H7.77795V2.12125C7.77795 1.93372 7.85245 1.75387 7.98505 1.62127C8.11766 1.48867 8.29751 1.41417 8.48504 1.41417C8.67257 1.41417 8.85241 1.48867 8.98502 1.62127C9.11762 1.75387 9.19212 1.93372 9.19212 2.12125V2.65157H9.58596C10.3439 2.65152 11.0734 2.94033 11.626 3.45922C12.1785 3.97811 12.5125 4.68806 12.56 5.44454L12.7162 7.94338C12.7766 8.89597 13.0965 9.81389 13.6411 10.5978C13.7538 10.7597 13.8226 10.9481 13.841 11.1446C13.8593 11.341 13.8264 11.5389 13.7457 11.7189C13.6649 11.8989 13.5389 12.0549 13.3799 12.1718C13.221 12.2887 13.0345 12.3625 12.8385 12.386L10.4295 12.6745V13.4346C10.4295 13.9503 10.2247 14.4449 9.85999 14.8095C9.49533 15.1742 9.00074 15.3791 8.48504 15.3791C7.96933 15.3791 7.47474 15.1742 7.11008 14.8095C6.74542 14.4449 6.54056 13.9503 6.54056 13.4346V12.6745L4.13152 12.3853C3.93573 12.3617 3.74935 12.288 3.5905 12.1711C3.43164 12.0543 3.30571 11.8983 3.22494 11.7184C3.14417 11.5385 3.1113 11.3408 3.12953 11.1444C3.14776 10.948 3.21647 10.7597 3.32898 10.5978C3.87361 9.81389 4.19344 8.89597 4.25385 7.94338L4.41011 5.44454ZM7.60118 13.4346C7.60118 13.669 7.6943 13.8938 7.86006 14.0596C8.02581 14.2253 8.25062 14.3184 8.48504 14.3184C8.71945 14.3184 8.94426 14.2253 9.11001 14.0596C9.27577 13.8938 9.36889 13.669 9.36889 13.4346V12.9043H7.60118V13.4346Z" fill="#FFD500"/>
<path d="M12.475 0.958099C12.3691 1.05057 12.3042 1.18132 12.2947 1.32161C12.2851 1.46189 12.3317 1.60023 12.4241 1.70619L13.3377 2.75268C13.6921 3.15908 13.8924 3.67719 13.9033 4.21634L13.9436 6.13748C13.9451 6.20713 13.9602 6.2758 13.9882 6.33959C14.0162 6.40338 14.0565 6.46104 14.1067 6.50926C14.157 6.55749 14.2162 6.59534 14.2811 6.62066C14.346 6.64599 14.4153 6.65828 14.4849 6.65684C14.5546 6.6554 14.6232 6.64026 14.687 6.61228C14.7508 6.58429 14.8085 6.54402 14.8567 6.49376C14.9049 6.4435 14.9428 6.38423 14.9681 6.31934C14.9934 6.25445 15.0057 6.18521 15.0043 6.11556L14.964 4.19371C14.9475 3.406 14.6547 2.64914 14.1367 2.05549L13.2231 1.00901C13.1307 0.90308 12.9999 0.83821 12.8596 0.828663C12.7193 0.819116 12.581 0.865674 12.475 0.958099Z" fill="#FFD500"/>
</svg>
