<svg width="20" height="17" viewBox="0 0 20 17" fill="none" xmlns="http://www.w3.org/2000/svg">
<path d="M9.38063 3.88295C9.52704 3.64346 9.5072 3.34958 9.32964 3.12778C9.15208 2.90599 8.84848 2.79585 8.54951 2.84478C5.93941 3.27191 3.96041 5.32576 3.96041 7.79679C3.96041 9.05465 4.47444 10.2063 5.32283 11.0884C5.60739 11.3843 6.10475 11.4167 6.43372 11.1607C6.76268 10.9048 6.79868 10.4575 6.51412 10.1616C5.9039 9.52713 5.53556 8.70154 5.53556 7.79679C5.53556 6.4978 6.29739 5.35805 7.44119 4.72025C7.41099 4.91817 7.39539 5.12017 7.39539 5.32528C7.39539 7.76395 9.59347 9.74088 12.3049 9.74088C12.533 9.74088 12.7575 9.72686 12.9776 9.69971C12.8652 9.86266 12.7388 10.0171 12.5998 10.1616C12.3152 10.4575 12.3512 10.9048 12.6802 11.1607C13.0092 11.4167 13.5065 11.3843 13.7911 11.0884C14.4304 10.4237 14.8803 9.60556 15.0629 8.70288C15.1173 8.43399 14.9949 8.16094 14.7483 8.00124C14.5017 7.84155 14.1749 7.8237 13.9086 7.95538C13.4336 8.19031 12.8878 8.32422 12.3049 8.32422C10.4634 8.32422 8.97054 6.98155 8.97054 5.32528C8.97054 4.80105 9.11942 4.31022 9.38063 3.88295Z" fill="#969696"/>
<path d="M15.0756 14.1667C15.5106 14.1667 15.8632 13.8495 15.8632 13.4583C15.8632 13.0671 15.5106 12.75 15.0756 12.75H4.04966C3.61469 12.75 3.26208 13.0671 3.26208 13.4583C3.26208 13.8495 3.61469 14.1667 4.04966 14.1667L15.0756 14.1667Z" fill="#969696"/>
</svg>
