<svg width="20" height="17" viewBox="0 0 20 17" fill="none" xmlns="http://www.w3.org/2000/svg">
<path d="M10.3503 2.12499C10.3503 1.73379 9.99768 1.41666 9.56272 1.41666C9.12775 1.41666 8.77515 1.73379 8.77515 2.12499V2.83332C8.77515 3.22452 9.12775 3.54166 9.56272 3.54166C9.99768 3.54166 10.3503 3.22452 10.3503 2.83332V2.12499Z" fill="#969696"/>
<path d="M10.3503 11.3333C10.3503 10.9421 9.99768 10.625 9.56272 10.625C9.12775 10.625 8.77515 10.9421 8.77515 11.3333V13.1649L8.54447 12.9575C8.23691 12.6808 7.73825 12.6808 7.43068 12.9575C7.12312 13.2341 7.12312 13.6826 7.43068 13.9592L9.00582 15.3759C9.31339 15.6525 9.81205 15.6525 10.1196 15.3759L11.6948 13.9592C12.0023 13.6826 12.0023 13.2341 11.6948 12.9575C11.3872 12.6808 10.8885 12.6808 10.581 12.9575L10.3503 13.1649V11.3333Z" fill="#969696"/>
<path d="M16.6509 9.20832C17.0858 9.20832 17.4384 8.89119 17.4384 8.49999C17.4384 8.10879 17.0858 7.79166 16.6509 7.79166H15.8633C15.4283 7.79166 15.0757 8.10879 15.0757 8.49999C15.0757 8.89119 15.4283 9.20832 15.8633 9.20832H16.6509Z" fill="#969696"/>
<path d="M4.04972 8.49999C4.04972 8.89119 3.69712 9.20832 3.26215 9.20832H2.47458C2.03962 9.20832 1.68701 8.89119 1.68701 8.49999C1.68701 8.10879 2.03962 7.79166 2.47458 7.79166H3.26215C3.69712 7.79166 4.04972 8.10879 4.04972 8.49999Z" fill="#969696"/>
<path d="M15.1317 12.5069L14.5748 12.0061C14.2672 11.7294 13.7686 11.7294 13.461 12.0061C13.1534 12.2827 13.1534 12.7312 13.461 13.0078L14.0179 13.5087C14.3255 13.7853 14.8241 13.7853 15.1317 13.5087C15.4392 13.232 15.4392 12.7836 15.1317 12.5069Z" fill="#969696"/>
<path d="M5.66444 4.99392C5.35688 5.27054 4.85821 5.27054 4.55065 4.99392L3.99375 4.49305C3.68619 4.21643 3.68619 3.76794 3.99375 3.49132C4.30132 3.2147 4.79998 3.2147 5.10755 3.49132L5.66444 3.99218C5.97201 4.26881 5.97201 4.7173 5.66444 4.99392Z" fill="#969696"/>
<path d="M3.99375 12.5069C3.68619 12.7836 3.68619 13.232 3.99375 13.5087C4.30132 13.7853 4.79998 13.7853 5.10755 13.5087L5.66444 13.0078C5.97201 12.7312 5.97201 12.2827 5.66444 12.0061C5.35688 11.7294 4.85822 11.7294 4.55065 12.0061L3.99375 12.5069Z" fill="#969696"/>
<path d="M13.461 4.99392C13.1534 4.7173 13.1534 4.26881 13.461 3.99218L14.0179 3.49132C14.3255 3.2147 14.8241 3.2147 15.1317 3.49132C15.4392 3.76794 15.4392 4.21643 15.1317 4.49305L14.5748 4.99392C14.2672 5.27054 13.7686 5.27054 13.461 4.99392Z" fill="#969696"/>
<path d="M7.11221 9.63713C6.57616 8.70343 6.74467 7.52844 7.61358 6.74695C8.69005 5.77878 10.4354 5.77878 11.5119 6.74695C12.3808 7.52844 12.5493 8.70343 12.0132 9.63713C11.8137 9.98473 11.9652 10.412 12.3517 10.5915C12.7381 10.771 13.2132 10.6347 13.4128 10.2871C14.2542 8.82149 13.9932 6.97522 12.6256 5.74522C10.934 4.2238 8.19139 4.2238 6.49978 5.74522C5.13219 6.97522 4.8712 8.82149 5.71264 10.2871C5.9122 10.6347 6.38728 10.771 6.77377 10.5915C7.16025 10.412 7.31177 9.98473 7.11221 9.63713Z" fill="#969696"/>
</svg>
