<svg width="19" height="17" viewBox="0 0 19 17" fill="none" xmlns="http://www.w3.org/2000/svg">
<path fill-rule="evenodd" clip-rule="evenodd" d="M9.09667 3.20804C9.27422 3.42984 9.29407 3.72372 9.14766 3.96321C8.83909 4.46795 8.66326 5.04778 8.66326 5.66666C8.66326 7.62267 10.4263 9.20833 12.6011 9.20833C13.2892 9.20833 13.9339 9.05019 14.4951 8.77267C14.7614 8.64099 15.0882 8.65884 15.3348 8.81853C15.5814 8.97823 15.7038 9.25128 15.6494 9.52017C15.1148 12.1629 12.5438 14.1667 9.45083 14.1667C5.97113 14.1667 3.15027 11.6296 3.15027 8.5C3.15027 5.71821 5.37816 3.40589 8.31654 2.92504C8.61551 2.87611 8.91911 2.98625 9.09667 3.20804ZM7.17757 4.77299C5.71597 5.49577 4.72541 6.89428 4.72541 8.5C4.72541 10.8472 6.84105 12.75 9.45083 12.75C11.2362 12.75 12.7911 11.8591 13.5948 10.5446C13.2722 10.5974 12.9401 10.625 12.6011 10.625C9.55637 10.625 7.08812 8.40508 7.08812 5.66666C7.08812 5.36177 7.1188 5.06306 7.17757 4.77299Z" fill="#2F3744"/>
</svg>
